# xmcd CD database file
#
# Track frame offsets:
#	150
#	11219
#	22862
#	34088
#	44851
#	54649
#	63980
#	74911
#	84696
#	94602
#	106015
#	118204
#	129428
#	141709
#	153491
#	164131
#	177817
#	189388
#	201445
#	211506
#	224973
#	237055
#	249904
#	263257
#	276482
#	287179
#	297936
#	307520
#	318278
#	333179
#	344898
#
# Disc length: 4772 seconds
#
# Revision: 2
# Processed by: cddbd v1.5.2PL0 Copyright (c) Steve Scherf et al.
# Submitted via: CDex 1.51
#
DISCID=e312a21f
DTITLE=Porter Wagoner - The Bottom of the Bottle/Confessions of a Broken Man
DYEAR=2013
DGENRE=Country
TTITLE0=Wino
TTITLE1=Daddy And The Wine
TTITLE2=Swinging Doors
TTITLE3=The Bottom Of The Bottle
TTITLE4=In The Shadows Of The Wine
TTITLE5=She Burnt The Little Roadside Tavern Down
TTITLE6=The  Bottle Let Me Down
TTITLE7=One Dime For Wine
TTITLE8=Wine
TTITLE9=Turn The Juke Box Up Lounder
TTITLE10=I Threw Away The Rose
TTITLE11=Bottle,Bottle
TTITLE12=Men With Broken Hearts
TTITLE13=I Just Came To Smell The Flowers
TTITLE14=May You Never Be Alone
TTITLE15=Skid Row Joe
TTITLE16=Take Me Back And Try Me One More Time
TTITLE17=How Far Down Can I Go
TTITLE18=I'm A Long Way From Home
TTITLE19=Confessions Of A Broken man
TTITLE20=My Tears Are Overdue
TTITLE21=I've Been Down That Road Before
TTITLE22=Thy Burdens Are Greater Than Mine
TTITLE23=My Last Two Yens
TTITLE24=Banks Of The Ohio
TTITLE25=Sing Me Back Home
TTITLE26=The Silent Kind
TTITLE27=The Alley
TTITLE28=Mama
TTITLE29=When I Drink My Wine
TTITLE30=I Judged A Man
EXTD=YEAR: 2013
EXTT0=
EXTT1=
EXTT2=
EXTT3=
EXTT4=
EXTT5=
EXTT6=
EXTT7=
EXTT8=
EXTT9=
EXTT10=
EXTT11=
EXTT12=
EXTT13=
EXTT14=
EXTT15=
EXTT16=
EXTT17=
EXTT18=
EXTT19=
EXTT20=
EXTT21=
EXTT22=
EXTT23=
EXTT24=
EXTT25=
EXTT26=
EXTT27=
EXTT28=
EXTT29=
EXTT30=
PLAYORDER=
